<?xml version="1.0" encoding="UTF-8"?>
<svg version="1.1" xmlns="http://www.w3.org/2000/svg" width="1498" height="1935">
<path d="M0 0 C1.79957679 -0.00645509 3.59915261 -0.01318526 5.39872742 -0.02017212 C9.15459617 -0.03206424 12.91037356 -0.03586174 16.66625977 -0.03466797 C20.46040047 -0.03450612 24.25405475 -0.04829572 28.0480957 -0.07568359 C49.44893354 -0.22783162 70.0215606 0.01809319 91.07421875 4.3359375 C92.42121157 4.58776886 93.76872841 4.83682696 95.11694336 5.08203125 C98.22405713 5.67040294 101.30357871 6.32128492 104.38671875 7.0234375 C105.47807129 7.26980957 106.56942383 7.51618164 107.69384766 7.77001953 C168.70734917 22.03797878 225.79624277 50.82720838 271.07421875 94.3359375 C271.80680908 95.03565674 271.80680908 95.03565674 272.55419922 95.74951172 C279.28674415 102.21067425 285.33436369 108.98634745 291.07421875 116.3359375 C291.80511719 117.25221924 291.80511719 117.25221924 292.55078125 118.18701172 C300.96877342 128.74319463 308.36741136 139.61928881 315.07421875 151.3359375 C315.46561035 152.01027832 315.85700195 152.68461914 316.26025391 153.37939453 C331.06656989 179.11222917 340.23338126 208.13403358 345.07421875 237.3359375 C345.22375 238.16287109 345.37328125 238.98980469 345.52734375 239.84179688 C351.00288013 270.9249064 350.65755702 306.29819243 345.07421875 337.3359375 C344.89729492 338.33689453 344.72037109 339.33785156 344.53808594 340.36914062 C331.09761134 414.23371777 291.14295979 481.92010549 231.07421875 527.3359375 C230.48946777 527.78291992 229.9047168 528.22990234 229.30224609 528.69042969 C178.43433385 567.48017995 117.05950608 589.15970131 53.67626953 595.38745117 C52.75109024 595.47912315 51.82591095 595.57079514 50.87269592 595.66524506 C48.6066194 595.8896584 46.34046051 596.11320008 44.07421875 596.3359375 C43.80023771 627.6148391 43.58798597 658.89342229 43.4614348 690.17323964 C43.44642701 693.86931994 43.43089508 697.56539786 43.41503906 701.26147461 C43.41189134 701.99727104 43.40874361 702.73306748 43.4055005 703.49116077 C43.35333914 715.39220871 43.25875611 727.29255832 43.1483852 739.19319252 C43.03601162 751.41202613 42.96948126 763.63049501 42.94515681 775.84982413 C42.92872194 783.38522014 42.87689793 790.91864224 42.77922115 798.45343026 C42.70805305 804.23945345 42.70079431 810.02422308 42.71692657 815.81059647 C42.71363255 818.17817117 42.68985686 820.54582245 42.64375305 822.91295052 C41.8926443 835.74236631 41.8926443 835.74236631 46.69228363 847.12451744 C49.52259788 849.97931286 52.69643318 852.16047998 56.07421875 854.3359375 C57.47070771 855.51937023 58.85175626 856.72197048 60.19921875 857.9609375 C61.13701172 858.77304688 61.13701172 858.77304688 62.09375 859.6015625 C64.3855503 861.60858288 66.63418627 863.65996601 68.88671875 865.7109375 C72.26362857 868.76452617 75.70639007 871.68022955 79.26171875 874.5234375 C85.32742093 879.42597236 90.95586852 884.75851787 96.62890625 890.10546875 C99.75539937 893.049485 102.94304717 895.9070044 106.19921875 898.70703125 C108.46173056 900.67258839 110.67112558 902.69267059 112.88671875 904.7109375 C116.26362857 907.76452617 119.70639007 910.68022955 123.26171875 913.5234375 C129.33238537 918.42998481 134.9649079 923.76794367 140.64453125 929.1171875 C144.84230797 933.06909767 149.1571238 936.85939523 153.55175781 940.59033203 C160.69443887 946.65634347 167.73490634 952.79330576 174.59375 959.1796875 C178.05135507 962.39883705 181.55450926 965.54837993 185.12890625 968.63671875 C187.41087165 970.63000178 189.64650449 972.67086777 191.88671875 974.7109375 C195.26362857 977.76452617 198.70639007 980.68022955 202.26171875 983.5234375 C208.32742093 988.42597236 213.95586852 993.75851787 219.62890625 999.10546875 C222.74187484 1002.03674982 225.91580163 1004.88208501 229.15625 1007.671875 C233.18282219 1011.16539792 237.11921684 1014.76184766 241.07421875 1018.3359375 C237.8447097 1022.47374597 234.4351696 1025.88359566 230.4453125 1029.28515625 C227.60146685 1031.74482506 224.83705185 1034.28632727 222.07421875 1036.8359375 C218.16484179 1040.43653604 214.21554257 1043.98012352 210.19921875 1047.4609375 C207.45598381 1049.88143892 204.76540632 1052.35797928 202.07421875 1054.8359375 C198.11562152 1058.4801069 194.12245043 1062.07507529 190.05859375 1065.6015625 C186.02047184 1069.13094464 182.05507194 1072.74227976 178.07421875 1076.3359375 C176.40781024 1077.83622429 174.74114522 1079.33622622 173.07421875 1080.8359375 C172.24921875 1081.5784375 171.42421875 1082.3209375 170.57421875 1083.0859375 C113.07421875 1134.8359375 113.07421875 1134.8359375 110.58203125 1137.078125 C108.88828981 1138.60301994 107.19560706 1140.12909152 105.50390625 1141.65625 C101.75857619 1145.03506458 98.00903668 1148.40489715 94.19921875 1151.7109375 C90.23169151 1155.16445311 86.36574235 1158.7259769 82.49658203 1162.28857422 C79.10977315 1165.40178794 75.67524331 1168.44838288 72.19921875 1171.4609375 C69.4559823 1173.88144025 66.76547289 1176.35805005 64.07421875 1178.8359375 C51.12563625 1190.75024945 51.12563625 1190.75024945 46.99968529 1193.04859447 C44.66907626 1195.02151241 44.1174784 1196.11567283 43.52118611 1199.15180743 C43.31387137 1202.96340578 43.30305177 1206.75172599 43.35269165 1210.5662384 C43.3500752 1212.05136373 43.34482171 1213.53648637 43.33715665 1215.02159423 C43.32372843 1219.10381683 43.34775488 1223.18509649 43.37782502 1227.26719892 C43.40371184 1231.66865162 43.39496927 1236.07005022 43.39041138 1240.47155762 C43.38726372 1248.09780817 43.40610447 1255.72375095 43.43983841 1263.34992409 C43.48858019 1274.376065 43.50422498 1285.40205694 43.51176636 1296.42829391 C43.52490138 1314.3171078 43.56483981 1332.20575762 43.62158203 1350.09448242 C43.67664775 1367.47272927 43.71912243 1384.85093158 43.74462891 1402.22924805 C43.74699342 1403.83577474 43.74699342 1403.83577474 43.7494057 1405.47475652 C43.75723587 1410.84768464 43.76481813 1416.22061309 43.77227712 1421.59354174 C43.83448756 1466.17445398 43.94017536 1510.75518728 44.07421875 1555.3359375 C47.74010834 1553.71013171 51.40563306 1552.08350618 55.07084656 1550.45617676 C56.9184249 1549.63605835 58.76627713 1548.81655705 60.61413574 1547.99707031 C78.2209576 1540.17845786 95.2967894 1531.81934551 112.07421875 1522.3359375 C112.95948242 1521.83610352 113.84474609 1521.33626953 114.75683594 1520.82128906 C142.37225162 1505.11800705 168.87628299 1487.07440716 193.32128906 1466.78466797 C195.82433199 1464.71599711 198.35842251 1462.68611535 200.88671875 1460.6484375 C205.49195231 1456.87989052 209.90295409 1452.92805446 214.2734375 1448.890625 C216.41187551 1446.94008322 218.57243028 1445.04079505 220.76464844 1443.15258789 C224.94895871 1439.49478575 228.90538341 1435.6496423 232.828125 1431.71484375 C233.88494728 1430.65945656 233.88494728 1430.65945656 234.96311951 1429.58274841 C236.44075242 1428.10579102 237.91714332 1426.62759008 239.39233398 1425.14819336 C241.63088356 1422.90428665 243.87472348 1420.66577046 246.11914062 1418.42773438 C247.56412279 1416.98209132 249.00879467 1415.53613805 250.453125 1414.08984375 C251.11373428 1413.4312587 251.77434357 1412.77267365 252.45497131 1412.09413147 C256.85883863 1407.66838028 261.00899021 1403.07327677 265.07421875 1398.3359375 C266.04747483 1397.21813816 267.02131477 1396.10084653 267.99609375 1394.984375 C274.94644826 1386.96044759 281.61857831 1378.76243767 288.07421875 1370.3359375 C288.5429541 1369.72556641 289.01168945 1369.11519531 289.49462891 1368.48632812 C327.63460213 1318.66558476 358.10792783 1263.41842728 380.99047852 1205.04174805 C381.38162842 1204.04570557 381.77277832 1203.04966309 382.17578125 1202.0234375 C382.51947754 1201.14042969 382.86317383 1200.25742188 383.21728516 1199.34765625 C384.07421875 1197.3359375 384.07421875 1197.3359375 385.07421875 1196.3359375 C387.74480726 1196.19478589 390.39854113 1196.29346643 393.07421875 1196.3359375 C394.41431787 1284.3151629 383.13738538 1373.31479529 350.07421875 1484.3359375 C349.76127869 1485.30409393 349.76127869 1485.30409393 349.4420166 1486.29180908 C340.53968921 1513.7713364 329.70480195 1540.48853359 317.36523438 1566.59814453 C316.09346474 1569.29512349 314.84007551 1572.000012 313.58984375 1574.70703125 C297.30776714 1609.73325733 277.11749602 1643.35216881 254.07421875 1674.3359375 C253.06611276 1675.70551318 252.05829618 1677.07530195 251.05078125 1678.4453125 C244.00758152 1687.97570336 236.63561315 1697.21274375 229.07421875 1706.3359375 C228.59597656 1706.91472656 228.11773438 1707.49351563 227.625 1708.08984375 C221.17113637 1715.88148304 214.44055106 1723.37103565 207.53417969 1730.76269531 C206.13173301 1732.27396059 204.74456306 1733.79751542 203.36328125 1735.328125 C194.46695346 1745.16365455 185.31979135 1754.93102992 175.18359375 1763.5078125 C172.88785108 1765.49745615 170.67118627 1767.55825983 168.4519043 1769.63232422 C162.19607479 1775.47519488 155.76898248 1780.99628011 149.07421875 1786.3359375 C147.95630681 1787.2452038 146.83915815 1788.1554091 145.72265625 1789.06640625 C122.83481996 1807.67115692 98.48674412 1824.36895016 73.07421875 1839.3359375 C72.29111328 1839.79887207 71.50800781 1840.26180664 70.70117188 1840.73876953 C-4.36042982 1884.91285056 -87.56112837 1911.74064161 -224.70922852 1932.12304688 C-226.90573003 1932.33401166 -229.10025909 1932.5598242 -231.29492188 1932.7890625 C-258.19066616 1935.54872868 -285.14989104 1935.65398891 -312.15890884 1935.70429993 C-314.99222626 1935.7108031 -317.82548632 1935.72224586 -320.65878296 1935.73474121 C-357.95205516 1935.87720427 -395.10585622 1933.82782246 -432.0859375 1928.83984375 C-432.94969498 1928.72419571 -433.81345245 1928.60854767 -434.7033844 1928.48939514 C-521.09122638 1916.71290444 -604.79243836 1892.22013042 -749.07128906 1821.04785156 C-751.8882359 1819.35845443 -754.71495397 1817.686411 -757.54296875 1816.015625 C-784.48216508 1799.98166979 -810.51052259 1782.00174365 -834.92578125 1762.3359375 C-835.56757324 1761.8203125 -836.20936523 1761.3046875 -836.87060547 1760.7734375 C-848.99523087 1751.01981087 -860.97261304 1741.14018916 -872.43359375 1730.609375 C-874.63073193 1728.60508907 -876.85858206 1726.64980334 -879.11328125 1724.7109375 C-882.55600252 1721.72397363 -885.74464552 1718.53538541 -888.94140625 1715.2890625 C-890.79357595 1713.46606083 -892.69753305 1711.76990084 -894.67578125 1710.0859375 C-902.46325706 1703.37365559 -909.68937883 1695.95253598 -916.3515625 1688.12890625 C-917.97345315 1686.28164121 -919.6723833 1684.55837036 -921.42578125 1682.8359375 C-925.13787272 1679.1729045 -928.52600773 1675.28786402 -931.92578125 1671.3359375 C-932.93033867 1670.18302627 -933.93560916 1669.03073615 -934.94140625 1667.87890625 C-995.90377939 1597.98774614 -1041.9354326 1517.13956041 -1099.23828125 1315.7109375 C-1099.35570679 1314.98560822 -1099.47313232 1314.26027893 -1099.59411621 1313.51296997 C-1103.45333072 1289.41902015 -1105.40503035 1265.50052965 -1105.36168933 1241.09800625 C-1105.35851693 1238.31851721 -1105.36477624 1235.53907539 -1105.37072808 1232.75959325 C-1105.38459872 1226.17708813 -1105.38336174 1219.59471323 -1105.37182617 1213.01220703 C-1105.36037068 1206.32971765 -1105.37441802 1199.6476309 -1105.40122265 1192.96519446 C-1105.42372129 1187.12720764 -1105.42994183 1181.28934395 -1105.42414623 1175.45131707 C-1105.42085427 1172.00882556 -1105.42264725 1168.56659086 -1105.44039726 1165.12413788 C-1105.54233045 1139.45782052 -1102.72037007 1114.44805741 -1098.11328125 1089.2109375 C-1097.92711243 1088.17888184 -1097.92711243 1088.17888184 -1097.73718262 1087.12597656 C-1081.60301038 997.99715762 -1045.00375034 913.32119148 -968.92578125 807.3359375 C-967.78882813 805.92441406 -967.78882813 805.92441406 -966.62890625 804.484375 C-958.47697229 794.45344917 -950.1732248 784.569803 -941.41015625 775.06640625 C-939.429696 772.88976834 -937.48599355 770.69243722 -935.5546875 768.47265625 C-926.59552651 758.20730208 -917.10379155 748.42190157 -907.48828125 738.7734375 C-906.75569092 738.03625488 -906.02310059 737.29907227 -905.26831055 736.53955078 C-901.25800439 732.54062332 -897.15118718 728.72353698 -892.86157227 725.02661133 C-889.69477013 722.26080167 -886.66456144 719.35273463 -883.61328125 716.4609375 C-878.47208404 711.62613552 -873.23953615 707.00853757 -867.72265625 702.6015625 C-864.4574661 699.95657607 -861.28823106 697.21285141 -858.11328125 694.4609375 C-851.22243858 688.52113575 -844.13338528 682.88468896 -836.92578125 677.3359375 C-835.7354126 676.41458008 -835.7354126 676.41458008 -834.52099609 675.47460938 C-824.03875728 667.36776356 -813.50677499 659.4096685 -802.48632812 652.04785156 C-799.94121444 650.34625572 -797.40208384 648.63592297 -794.86347961 646.92463684 C-761.33535267 624.33732793 -726.79312385 603.97929281 -690.92578125 585.3359375 C-689.91563965 584.81016113 -688.90549805 584.28438477 -687.86474609 583.74267578 C-650.30593246 564.3047488 -610.82409469 548.2776988 -570.92578125 534.3359375 C-570.24809692 534.09872986 -569.5704126 533.86152222 -568.87219238 533.61712646 C-538.09882994 522.86933241 -506.8978692 513.89094202 -475.23828125 506.1484375 C-474.43625275 505.95158356 -473.63422424 505.75472961 -472.80789185 505.5519104 C-470.55303972 505.00113021 -468.29655173 504.45782683 -466.0390625 503.91796875 C-464.75813721 503.61093018 -463.47721191 503.3038916 -462.1574707 502.98754883 C-458.92578125 502.3359375 -458.92578125 502.3359375 -454.92578125 502.3359375 C-454.26578125 505.3059375 -453.60578125 508.2759375 -452.92578125 511.3359375 C-454.67375 512.17511719 -454.67375 512.17511719 -456.45703125 513.03125 C-499.87991425 534.15638149 -541.61102307 561.9736259 -577.125 594.78125 C-578.56854099 596.09795266 -580.01573117 597.41195289 -581.50805664 598.6730957 C-588.3567524 604.48251321 -594.62661414 610.88640122 -600.9621582 617.24194336 C-602.98342393 619.2685673 -605.00997699 621.28979297 -607.03710938 623.31054688 C-613.21002138 629.4799901 -619.32890113 635.63040373 -624.92578125 642.3359375 C-625.80205247 643.34620978 -626.67960307 644.35537416 -627.55859375 645.36328125 C-648.81528737 670.18496894 -667.47331822 697.12929794 -683.92578125 725.3359375 C-684.3429541 726.05023926 -684.76012695 726.76454102 -685.18994141 727.50048828 C-688.21493451 732.71962292 -691.10060435 738.00623262 -693.92578125 743.3359375 C-694.47073242 744.36315918 -695.01568359 745.39038086 -695.57714844 746.44873047 C-707.78928663 769.68264193 -717.7580202 793.75526273 -726.92578125 818.3359375 C-713.28407092 812.61845597 -699.78281255 806.60542954 -686.30078125 800.5234375 C-685.42312103 800.12753418 -684.54546082 799.73163086 -683.64120483 799.32373047 C-681.87082774 798.52506959 -680.1004572 797.72639417 -678.33009338 796.92770386 C-677.46577194 796.53777252 -676.6014505 796.14784119 -675.7109375 795.74609375 C-674.85439072 795.35962677 -673.99784393 794.97315979 -673.11534119 794.57498169 C-666.33227338 791.51588268 -659.53993961 788.47851719 -652.73828125 785.4609375 C-651.71226807 785.00565674 -650.68625488 784.55037598 -649.62915039 784.08129883 C-646.75082676 782.80469764 -643.87226113 781.52864356 -640.99365234 780.25268555 C-633.07392275 776.74163659 -625.1557124 773.22716604 -617.23828125 769.7109375 C-616.27363953 769.28254578 -615.3089978 768.85415405 -614.31512451 768.41278076 C-599.81569255 761.97184315 -585.33743843 755.4852675 -570.87417603 748.96356201 C-558.50843983 743.38812531 -546.12356982 737.85773711 -533.72338867 732.359375 C-521.58481095 726.97581686 -509.46953822 721.54176047 -497.36328125 716.0859375 C-482.59283645 709.43037009 -467.80460798 702.81771708 -452.99365234 696.25268555 C-445.07392275 692.74163659 -437.1557124 689.22716604 -429.23828125 685.7109375 C-427.79131866 685.06834991 -427.79131866 685.06834991 -426.31512451 684.41278076 C-411.81939868 677.97348949 -397.34490688 671.48844069 -382.88525391 664.96859741 C-369.51247351 658.93936703 -356.11710945 652.96273491 -342.70849609 647.01367188 C-333.79279008 643.05755877 -324.88576844 639.0829154 -315.98828125 635.0859375 C-301.35443558 628.51375034 -286.69407731 622.00142936 -272.03344727 615.48925781 C-271.11454208 615.08101776 -270.1956369 614.67277771 -269.24888611 614.25216675 C-267.43645246 613.44746352 -265.62368314 612.64351586 -263.81056213 611.84036255 C-259.42079397 609.89486706 -255.03742383 607.93702753 -250.66552734 605.95166016 C-249.83590988 605.57693069 -249.00629242 605.20220123 -248.15153503 604.81611633 C-246.59192153 604.11107118 -245.03426732 603.40166981 -243.47895813 602.68717957 C-238.26240288 600.3359375 -238.26240288 600.3359375 -234.92578125 600.3359375 C-234.92578125 849.4859375 -234.92578125 1098.6359375 -234.92578125 1355.3359375 C-259.47786287 1366.1845317 -284.03242062 1377.02228545 -308.61328125 1387.8046875 C-319.22609652 1392.46221377 -329.82639675 1397.14794579 -340.42578125 1401.8359375 C-354.45919104 1408.04232258 -368.49947744 1414.23266506 -382.55078125 1420.3984375 C-383.393526 1420.76824738 -384.23627075 1421.13805725 -385.10455322 1421.51907349 C-391.89180285 1424.49716897 -398.67965199 1427.47389705 -405.4675293 1430.45056152 C-411.41223011 1433.0575409 -417.35668756 1435.66507412 -423.30078125 1438.2734375 C-424.14336487 1438.64316681 -424.98594849 1439.01289612 -425.85406494 1439.39382935 C-439.05388218 1445.18700719 -452.24233566 1451.00561029 -465.42578125 1456.8359375 C-481.12942771 1463.78081368 -496.84110539 1470.70701023 -512.56884766 1477.59716797 C-520.57860604 1481.10674821 -528.58475407 1484.62387367 -536.57913208 1488.16838074 C-540.39779672 1489.86107808 -544.21821378 1491.54979929 -548.03875732 1493.23825073 C-549.86845387 1494.04821684 -551.69728408 1494.86014306 -553.52520752 1495.67410278 C-556.04980008 1496.79810832 -558.57726814 1497.91538896 -561.10546875 1499.03125 C-561.85652893 1499.36778091 -562.60758911 1499.70431183 -563.38140869 1500.05104065 C-566.39293508 1501.37361108 -568.59894867 1502.3359375 -571.92578125 1502.3359375 C-571.92578125 1259.7859375 -571.92578125 1017.2359375 -571.92578125 767.3359375 C-586.11578125 773.6059375 -600.30578125 779.8759375 -614.92578125 786.3359375 C-626.88750619 791.59184694 -638.84997385 796.84587966 -650.81542969 802.09326172 C-655.98131029 804.35956518 -661.14507627 806.63066249 -666.30859375 808.90234375 C-682.65358334 816.0921918 -699.00437429 823.26908516 -715.38269043 830.38275146 C-717.02572261 831.09689357 -718.66822731 831.81225058 -720.31018066 832.52886963 C-722.56464251 833.51237411 -724.8210694 834.49121565 -727.078125 835.46875 C-727.74684128 835.76152832 -728.41555756 836.05430664 -729.10453796 836.35595703 C-733.69708113 838.3359375 -733.69708113 838.3359375 -735.92578125 838.3359375 C-736.20268799 839.61307617 -736.47959473 840.89021484 -736.76489258 842.20605469 C-737.89872409 847.30565533 -739.18769918 852.35796295 -740.5 857.4140625 C-751.85488043 901.59238895 -759.94028712 945.53801276 -764.17578125 990.9609375 C-764.25895599 991.85210266 -764.34213074 992.74326782 -764.42782593 993.66143799 C-764.66674624 996.25301921 -764.89936316 998.84507253 -765.12890625 1001.4375 C-765.19533829 1002.17081543 -765.26177032 1002.90413086 -765.33021545 1003.65966797 C-766.57235041 1018.09486313 -767.09342309 1032.51968887 -767.12890625 1047.00390625 C-767.13173363 1047.81029352 -767.134561 1048.61668079 -767.13747406 1049.44750404 C-767.15232193 1053.73299079 -767.16163632 1058.01844526 -767.16601562 1062.30395508 C-767.17035227 1065.74612303 -767.18407625 1069.18803353 -767.20703125 1072.63012695 C-767.43222434 1107.15272729 -765.58529559 1141.55149162 -760.4296875 1175.72265625 C-760.25621544 1176.88072029 -760.25621544 1176.88072029 -760.07923889 1178.06217957 C-752.43703214 1227.97070544 -739.01076461 1277.38130721 -717.92578125 1323.3359375 C-717.3937207 1324.49883301 -716.86166016 1325.66172852 -716.31347656 1326.85986328 C-708.46342531 1343.92109853 -699.73918119 1360.30853607 -689.92578125 1376.3359375 C-689.40242188 1377.19928711 -688.8790625 1378.06263672 -688.33984375 1378.95214844 C-681.88115625 1389.57865649 -674.95601036 1399.6876756 -667.33544922 1409.51318359 C-665.98956911 1411.25345739 -664.66006914 1413.00486435 -663.3359375 1414.76171875 C-654.60895619 1426.30473833 -645.21142311 1437.19006361 -635.36132812 1447.78271484 C-633.8459171 1449.42234834 -632.34572398 1451.07498173 -630.84765625 1452.73046875 C-626.16780256 1457.88674989 -621.51612628 1462.94337677 -616.16015625 1467.4140625 C-613.73195141 1469.50265828 -611.41793957 1471.68757085 -609.09399414 1473.890625 C-602.29177743 1480.32147495 -595.24926535 1486.2392004 -587.80029297 1491.90283203 C-585.82082753 1493.41617693 -583.85893715 1494.95046028 -581.8984375 1496.48828125 C-521.07002755 1543.98317193 -448.03660031 1573.54586755 -372.92578125 1589.3359375 C-371.4243457 1589.65788086 -371.4243457 1589.65788086 -369.89257812 1589.98632812 C-344.05496178 1595.4720568 -317.79194192 1598.82454178 -291.48828125 1601.0859375 C-290.46832565 1601.17455048 -290.46832565 1601.17455048 -289.42776489 1601.26495361 C-268.95182572 1603.01325334 -248.47023095 1603.54401339 -227.92578125 1603.5234375 C-226.79782135 1603.52283325 -225.66986145 1603.522229 -224.50772095 1603.52160645 C-142.04564982 1603.40271503 -61.29549642 1590.69453613 16.98046875 1564.7421875 C17.6714415 1564.51343933 18.36241425 1564.28469116 19.07432556 1564.04901123 C22.64091556 1562.85787368 22.64091556 1562.85787368 26.07421875 1561.3359375 C26.25727132 1514.95633097 26.39826633 1468.57676262 26.48274139 1422.19686615 C26.49274721 1416.72312176 26.50310178 1411.24937809 26.51367188 1405.77563477 C26.5168196 1404.14102744 26.5168196 1404.14102744 26.52003092 1402.47339774 C26.55485534 1384.82116566 26.61793951 1367.1691417 26.69144112 1349.51703315 C26.76621492 1331.40856362 26.81068085 1313.30020319 26.82692671 1295.1915856 C26.83791176 1284.0146396 26.87262416 1272.83828181 26.93755049 1261.66151685 C26.97979097 1254.00043679 26.99263036 1246.33966145 26.98222977 1238.67847335 C26.97709807 1234.25604561 26.98504311 1229.83464666 27.02786255 1225.4124012 C27.06678222 1221.36337915 27.0687722 1217.31607789 27.04140991 1213.26697678 C27.03802822 1211.80249351 27.04819234 1210.33790308 27.07328421 1208.87363087 C27.3852572 1200.976106 27.3852572 1200.976106 24.33873653 1193.97781098 C22.33452776 1192.20564691 20.32437076 1190.77441605 18.07421875 1189.3359375 C17.01178391 1188.41135778 15.96828966 1187.46435515 14.94921875 1186.4921875 C8.57332079 1180.59570786 8.57332079 1180.59570786 2.07421875 1174.8359375 C-1.85667375 1171.429164 -5.67774698 1167.90590965 -9.50390625 1164.3828125 C-12.28072182 1161.83038607 -15.07558842 1159.30610462 -17.92578125 1156.8359375 C-21.31628905 1153.8974974 -24.62547155 1150.87479608 -27.92578125 1147.8359375 C-31.85862966 1144.21503616 -35.82792137 1140.64634825 -39.8671875 1137.14453125 C-43.38020427 1134.0581427 -46.81877943 1130.88964972 -50.2734375 1127.73828125 C-52.45039121 1125.76651906 -54.64416799 1123.82228413 -56.86328125 1121.8984375 C-60.81245492 1118.46825174 -64.6560043 1114.92590232 -68.50366211 1111.38305664 C-71.28054495 1108.83053297 -74.0755014 1106.30618004 -76.92578125 1103.8359375 C-80.85667375 1100.429164 -84.67774698 1096.90590965 -88.50390625 1093.3828125 C-91.28072182 1090.83038607 -94.07558842 1088.30610462 -96.92578125 1085.8359375 C-100.85667375 1082.429164 -104.67774698 1078.90590965 -108.50390625 1075.3828125 C-111.28072182 1072.83038607 -114.07558842 1070.30610462 -116.92578125 1067.8359375 C-120.31628905 1064.8974974 -123.62547155 1061.87479608 -126.92578125 1058.8359375 C-130.85862966 1055.21503616 -134.82792137 1051.64634825 -138.8671875 1048.14453125 C-141.41534775 1045.905825 -143.91988718 1043.62183538 -146.42578125 1041.3359375 C-149.56661681 1038.47121935 -152.71678881 1035.62407848 -155.92578125 1032.8359375 C-159.27304711 1029.91405334 -162.61101116 1026.98214533 -165.92578125 1024.0234375 C-166.87453125 1023.18167969 -167.82328125 1022.33992187 -168.80078125 1021.47265625 C-170.92578125 1019.3359375 -170.92578125 1019.3359375 -170.92578125 1017.3359375 C-169.41426579 1015.98496376 -167.83764812 1014.70666405 -166.23828125 1013.4609375 C-161.79281791 1009.91141478 -157.57082569 1006.23034847 -153.42578125 1002.3359375 C-148.66567207 997.87640042 -143.76102883 993.69789964 -138.671875 989.61328125 C-135.66259167 987.1176736 -132.78637839 984.49830269 -129.92578125 981.8359375 C-126.21716437 978.38431814 -122.4407223 975.07071602 -118.48828125 971.8984375 C-113.70956497 968.05483693 -109.23420438 963.96633586 -104.76196289 959.77758789 C-100.57248599 955.8759708 -96.20405189 952.26268953 -91.73828125 948.6796875 C-88.52728191 946.00385472 -85.47550489 943.19234043 -82.42578125 940.3359375 C-77.66489131 935.87719306 -72.76110305 931.6979592 -67.671875 927.61328125 C-64.66259167 925.1176736 -61.78637839 922.49830269 -58.92578125 919.8359375 C-55.21716437 916.38431814 -51.4407223 913.07071602 -47.48828125 909.8984375 C-42.70956497 906.05483693 -38.23420438 901.96633586 -33.76196289 897.77758789 C-29.57248599 893.8759708 -25.20405189 890.26268953 -20.73828125 886.6796875 C-17.5272832 884.00385579 -14.47548988 881.19235474 -11.42578125 878.3359375 C-7.52999891 874.68707094 -3.59244088 871.17895511 0.57421875 867.8359375 C5.38002663 863.97864433 9.90720719 859.88789183 14.39648438 855.671875 C14.90373047 855.19621094 15.41097656 854.72054687 15.93359375 854.23046875 C16.40839784 853.77563272 16.88320193 853.32079668 17.37239403 852.85217774 C19.07421875 851.3359375 19.07421875 851.3359375 20.88124186 850.09846675 C23.68271596 848.10149474 25.7209845 846.52536835 26.72243869 843.15321374 C26.97378599 840.46725507 27.00074479 837.85888789 26.95396423 835.16140747 C26.96402876 834.13947638 26.97409329 833.1175453 26.9844628 832.0646466 C27.00969802 828.64148303 26.98507986 825.2205062 26.96069336 821.79736328 C26.96858129 819.34329603 26.97954158 816.88923701 26.99334717 814.43519592 C27.01615118 809.15249273 27.01758567 803.87044618 26.99952507 798.58777237 C26.97345013 790.95009487 26.98600313 783.31286295 27.0079164 775.6751902 C27.04242468 763.2830793 27.0457905 750.89116408 27.02954102 738.49902344 C27.01382505 726.46284119 27.01279508 714.42680511 27.03149414 702.390625 C27.03264207 701.64843944 27.03379 700.90625388 27.03497272 700.14157785 C27.04082221 696.4181675 27.04696019 692.69475769 27.05324161 688.97134805 C27.10496077 658.09282428 27.10560649 627.21449397 27.07421875 596.3359375 C26.27320834 596.33749218 25.47219793 596.33904686 24.64691448 596.34064865 C20.9770941 596.34686387 17.30727482 596.35069594 13.63745117 596.35449219 C12.37749077 596.35697968 11.11753036 596.35946716 9.81938934 596.36203003 C0.64908324 596.36913843 -8.45942879 596.16950364 -17.61328125 595.5859375 C-18.30880096 595.54270355 -19.00432068 595.4994696 -19.72091675 595.45492554 C-115.56546554 589.40035755 -209.54641906 560.33772674 -389.22412109 503.67724609 C-510.71296986 464.68056694 -510.71296986 464.68056694 -722.92578125 420.3359375 C-723.96387939 420.243125 -725.00197754 420.1503125 -726.0715332 420.0546875 C-779.32120238 415.72387423 -829.97196373 423.39895464 -871.859375 458.81640625 C-874.26425454 460.94309577 -876.60386737 463.11937362 -878.92578125 465.3359375 C-879.58449219 465.93148438 -880.24320313 466.52703125 -880.921875 467.140625 C-903.92893757 488.7126394 -916.76325232 521.25359794 -918.05078125 552.35546875 C-918.69012985 586.68049665 -909.93407599 621.44722169 -885.65234375 646.65234375 C-878.85332472 653.34421492 -872.06614386 659.32194604 -863.92578125 664.3359375 C-864.06746262 665.77385266 -864.21429168 667.2112612 -864.36328125 668.6484375 C-864.48509766 669.84919922 -864.48509766 669.84919922 -864.609375 671.07421875 C-864.92578125 673.3359375 -864.92578125 673.3359375 -865.92578125 676.3359375 C-873.69709593 674.19452791 -881.10062152 671.40107504 -888.55078125 668.3359375 C-889.72576172 667.85390869 -890.90074219 667.37187988 -892.11132812 666.87524414 C-928.24507353 651.92226151 -963.81550624 634.5200527 -992.5859375 607.5234375 C-994.64902709 605.5946726 -996.76093367 603.77296284 -998.92578125 601.9609375 C-1036.55629804 569.09183304 -1056.41658374 518.54602843 -1063.92578125 470.3359375 C-1064.0753125 469.44600098 -1064.22484375 468.55606445 -1064.37890625 467.63916016 C-1072.50501441 417.71788579 -1067.53084899 364.95166278 -1050.92578125 317.3359375 C-1050.64541016 316.52801758 -1050.36503906 315.72009766 -1050.07617188 314.88769531 C-1039.98387553 286.22601928 -1025.78758645 258.91904339 -1007.92578125 234.3359375 C-1007.52762207 233.78615234 -1007.12946289 233.23636719 -1006.71923828 232.66992188 C-999.42179758 222.64626748 -991.62676354 213.06823805 -983.26171875 203.91796875 C-981.35616003 201.81165719 -979.49323793 199.68033859 -977.63671875 197.53125 C-973.9673778 193.33091071 -970.12096243 189.33929335 -966.17578125 185.3984375 C-965.47767334 184.70041016 -964.77956543 184.00238281 -964.06030273 183.28320312 C-959.35616791 178.63046483 -954.54216023 174.34067608 -949.3359375 170.25390625 C-947.09543315 168.47094412 -945.01781547 166.6012757 -942.92578125 164.6484375 C-874.55077024 103.35512406 -776.12613736 76.03008159 -685.92578125 76.1484375 C-685.06239136 76.14904175 -684.19900146 76.149646 -683.30944824 76.15026855 C-598.43279229 76.3096139 -514.57113896 94.62609887 -296.23828125 165.5 C-251.23269672 181.57024498 -205.99419704 197.5535264 -159.92578125 210.3359375 C-158.8043573 210.64893799 -158.8043573 210.64893799 -157.66027832 210.96826172 C-124.8782895 220.10904601 -91.70534285 227.94232102 -57.92578125 232.3359375 C-56.8692334 232.48401855 -55.81268555 232.63209961 -54.72412109 232.78466797 C-38.53406689 235.0191889 -22.49604944 235.64322564 -6.17578125 235.7109375 C-4.77963593 235.72272034 -4.77963593 235.72272034 -3.35528564 235.73474121 C8.79008395 235.81469262 20.20549335 234.95154937 32.07421875 232.3359375 C32.93466797 232.14789551 33.79511719 231.95985352 34.68164062 231.76611328 C64.56812722 224.65523845 90.6077861 206.2796996 106.76171875 180.1484375 C120.83816125 156.52433703 125.15755963 127.07722914 118.62207031 100.35058594 C111.25465771 73.25794389 94.65525763 52.30162436 70.47265625 38.20703125 C51.59675417 27.55414577 30.54153512 21.85461309 9.07421875 19.3359375 C8.20152344 19.22507812 7.32882812 19.11421875 6.4296875 19 C-16.51075863 16.57139769 -39.97830341 18.94618931 -62.92578125 20.3359375 C-62.92578125 16.3759375 -62.92578125 12.4159375 -62.92578125 8.3359375 C-59.07142909 7.51277834 -55.21651985 6.69335695 -51.35961914 5.88232422 C-49.42317359 5.47357957 -47.48793167 5.05914553 -45.55273438 4.64453125 C-43.66264648 4.24814453 -43.66264648 4.24814453 -41.734375 3.84375 C-40.59798584 3.60285645 -39.46159668 3.36196289 -38.29077148 3.11376953 C-25.45234481 0.72194054 -13.01577281 0.01118952 0 0 Z " fill="#030606" transform="translate(1104.92578125,-0.3359375)"/>
</svg>
